:FULLY-SPECIFIED
:FORCE-ALL-JOINTS-BE-3DOF
:DEGREES
2344
root 1.55935 14.3643 -18.3291 920.785 -57.2155 168.104
lfemur -24.2344 -0.5548 0.858585
ltibia 42.9606 -0 0
lfoot -2.06502 18.8633 -0.571834
ltoes -35.4894 0 0
rfemur -63.3584 -6.81036 9.72688
rtibia 77.0146 -0 0
rfoot -12.3403 -16.5525 0.134691
rtoes 4.60524 -0 0
lowerback 20.8908 3.67318 -3.95601
upperback 0.390269 3.63719 -1.0185
thorax -11.4958 1.82387 0.025725
lowerneck -5.30259 -2.04716 -4.23819
upperneck 1.80819 -2.46358 -0.212955
head 1.5109 -1.27851 0.576845
lclavicle -2.92213e-14 -5.56597e-15 0
lhumerus -35.6715 -18.2108 83.6006
lradius 103.633 0 0
lwrist 61.653 0 0
lhand -22.6898 399.458 0
lfingers 7.12502 0 0
lthumb 3.74265 -650.595 0
rclavicle -2.92213e-14 -5.56597e-15 0
rhumerus 49.9558 11.1027 -44.7855
rradius 45.9252 0 0
rwrist 4.45733 0 0
rhand -7.38306 -400.651 0
rfingers 7.12502 0 0
rthumb 18.5024 290.209 0
2345
root 1.69536 14.4422 -18.51 922.398 -60.322 166.81
lfemur -26.3109 -0.573924 1.21126
ltibia 44.33 -0 0
lfoot -1.01506 18.0494 -0.451121
ltoes -34.3804 0 0
rfemur -63.0487 -6.15391 9.55596
rtibia 76.8975 -0 0
rfoot -12.8043 -16.8442 0.148883
rtoes 4.23083 -0 0
lowerback 21.0459 3.59166 -3.7812
upperback 0.416447 3.56553 -1.02336
thorax -11.5381 1.78087 -0.0635514
lowerneck -5.57499 -1.62496 -4.23017
upperneck 2.24731 -1.87732 -0.216943
head 1.68879 -0.991453 0.590228
lclavicle 4.53229e-14 -2.38542e-14 0
lhumerus -32.8448 -19.4113 82.7052
lradius 104.18 0 0
lwrist 62.1326 0 0
lhand -22.7643 399.34 0
lfingers 7.12502 0 0
lthumb 3.67076 -650.712 0
rclavicle 4.53229e-14 -2.38542e-14 0
rhumerus 48.785 11.8973 -44.3257
rradius 47.3899 0 0
rwrist 3.94807 0 0
rhand -7.3951 -401.276 0
rfingers 7.12502 0 0
rthumb 18.4908 289.583 0
2346
root 1.82913 14.5176 -18.7003 924.1 -63.7196 165.561
lfemur -28.3875 -0.580257 1.56439
ltibia 45.6994 -0 0
lfoot 0.0330742 17.238 -0.315527
ltoes -33.2714 0 0
rfemur -62.7414 -5.49655 9.38881
rtibia 76.7803 0 0
rfoot -13.2684 -17.136 0.160712
rtoes 3.85643 -0 0
lowerback 21.1488 3.44163 -3.42146
upperback 0.395323 3.47369 -0.890133
thorax -11.6018 1.7261 -0.0972185
lowerneck -5.69656 -1.22645 -3.87397
upperneck 2.51125 -1.34528 -0.644968
head 1.7762 -0.736716 0.411236
lclavicle 9.54166e-15 -5.56597e-15 0
lhumerus -29.8317 -20.7872 81.9467
lradius 104.765 0 0
lwrist 62.33 0 0
lhand -22.4268 398.82 0
lfingers 7.12502 0 0
lthumb 3.99665 -651.238 0
rclavicle 9.54166e-15 -5.56597e-15 0
rhumerus 47.4628 12.8042 -43.8047
rradius 49.0521 0 0
rwrist 3.68122 0 0
rhand -7.14575 -401.59 0
rfingers 7.12502 0 0
rthumb 18.7306 289.292 0
2347
root 1.95751 14.5872 -18.8996 926.548 -67.1653 163.544
lfemur -30.4641 -0.573791 1.91752
ltibia 47.0689 -0 0
lfoot 1.07917 16.4291 -0.165127
ltoes -32.1624 0 0
rfemur -62.4363 -4.83832 9.22536
rtibia 76.7332 -0 0
rfoot -13.7325 -17.428 0.170176
rtoes 3.48202 -0 0
lowerback 21.2516 3.32828 -3.15101
upperback 0.327563 3.40334 -0.807588
thorax -11.7224 1.68504 -0.145228
lowerneck -5.58657 -0.860911 -3.62673
upperneck 2.60906 -0.869136 -0.856863
head 1.77656 -0.502227 0.318361
lclavicle 9.14409e-15 0 0
lhumerus -26.5869 -22.5067 81.2518
lradius 105.267 0 0
lwrist 61.9699 0 0
lhand -22.8072 398.396 0
lfingers 7.12502 0 0
lthumb 3.6293 -651.655 0
rclavicle 9.14409e-15 0 0
rhumerus 45.8637 13.7193 -43.3516
rradius 50.819 0 0
rwrist 3.47126 0 0
rhand -7.04236 -401.999 0
rfingers 7.12502 0 0
rthumb 18.8301 288.892 0
2348
root 2.07308 14.6507 -19.1108 929.192 -70.8389 161.257
lfemur -32.5406 -0.554534 2.27018
ltibia 48.4383 -0 0
lfoot 2.12303 15.6231 0
ltoes -31.0534 0 0
rfemur -62.1334 -4.17923 9.06559
rtibia 76.6861 -0 0
rfoot -14.1967 -17.72 0.177274
rtoes 3.10762 -0 0
lowerback 21.3054 3.1323 -2.70395
upperback 0.312803 3.28829 -0.58056
thorax -11.7529 1.61762 -0.113811
lowerneck -6.16354 -0.45236 -3.39439
upperneck 3.32144 -0.288746 -1.147
head 2.10363 -0.230613 0.206719
lclavicle 1.35174e-14 5.56597e-15 0
lhumerus -23.0802 -24.1518 80.5161
lradius 105.831 0 0
lwrist 61.4339 0 0
lhand -22.8694 398.289 0
lfingers 7.12502 0 0
lthumb 3.56921 -651.761 0
rclavicle 1.35174e-14 5.56597e-15 0
rhumerus 44.2872 14.758 -42.8504
rradius 52.7081 0 0
rwrist 3.12259 0 0
rhand -6.6543 -402.448 0
rfingers 7.12502 0 0
rthumb 19.2033 288.48 0
2349
root 2.17368 14.7155 -19.3238 933.81 -74.5584 156.862
lfemur -34.6169 -0.522512 2.62192
ltibia 49.8078 -0 0
lfoot 1.8316 15.7136 -0.00506971
ltoes -29.9444 0 0
rfemur -61.8325 -3.51931 8.90943
rtibia 76.6391 -0 0
rfoot -14.6609 -18.012 0.182007
rtoes 2.73322 -0 0
lowerback 21.4255 2.89459 -2.30684
upperback 0.28199 3.09443 -0.423008
thorax -11.8368 1.51305 -0.110138
lowerneck -6.24781 0.0268828 -3.01741
upperneck 3.53584 0.349286 -1.58187
head 2.18233 0.0760948 0.0283262
lclavicle 1.70955e-14 -1.59028e-14 0
lhumerus -19.4059 -26.0373 79.615
lradius 106.496 0 0
lwrist 60.6791 0 0
lhand -22.553 398.154 0
lfingers 7.12502 0 0
lthumb 3.87474 -651.902 0
rclavicle 1.70955e-14 -1.59028e-14 0
rhumerus 42.5405 15.8986 -42.4211
rradius 54.6639 0 0
rwrist 2.35777 0 0
rhand -6.308 -402.566 0
rfingers 7.12502 0 0
rthumb 19.5363 288.395 0
2350
root 2.26218 14.7656 -19.5407 940.879 -78.3429 150.029
lfemur -36.693 -0.477769 2.97226
ltibia 51.1772 -0 0
lfoot 1.54015 15.8041 -0.009679
ltoes -28.8354 0 0
rfemur -61.5336 -2.85858 8.75684
rtibia 76.592 -0 0
rfoot -15.1251 -18.3041 0.184374
rtoes 2.35881 -0 0
lowerback 21.5332 2.69755 -1.69566
upperback 0.168986 3.01046 -0.279397
thorax -11.9988 1.4475 -0.280057
lowerneck -6.09279 0.462568 -2.38096
upperneck 3.6783 0.902481 -2.08788
head 2.20188 0.345081 -0.220397
lclavicle 1.35174e-14 3.97569e-15 0
lhumerus -15.5989 -28.2958 78.8343
lradius 107.142 0 0
lwrist 59.4745 0 0
lhand -21.9074 398.196 0
lfingers 7.12502 0 0
lthumb 4.4982 -651.871 0
rclavicle 1.35174e-14 3.97569e-15 0
rhumerus 40.3592 16.9921 -42.1644
rradius 56.6529 0 0
rwrist 1.25308 0 0
rhand -6.03402 -402.661 0
rfingers 7.12502 0 0
rthumb 19.7996 288.327 0
2351
root 2.33978 14.808 -19.7622 955.072 -81.8463 135.99
lfemur -38.7688 -0.420365 3.32074
ltibia 52.5466 -0 0
lfoot 1.2487 15.8947 -0.0138277
ltoes -27.7264 0 0
rfemur -61.2367 -2.19707 8.60778
rtibia 76.5449 -0 0
rfoot -15.5893 -18.5962 0.184374
rtoes 1.98441 -0 0
lowerback 21.5173 2.4058 -1.42084
upperback 0.177438 2.74777 0.107043
thorax -11.9829 1.32625 0.077509
lowerneck -6.22501 1.05482 -2.19331
upperneck 3.85102 1.71013 -2.5498
head 2.28917 0.731805 -0.367995
lclavicle -8.34896e-15 1.59028e-14 0
lhumerus -11.5649 -30.0482 78.2195
lradius 107.738 0 0
lwrist 58.1048 0 0
lhand -21.5324 397.916 0
lfingers 7.12502 0 0
lthumb 4.86032 -652.16 0
rclavicle -8.34896e-15 1.59028e-14 0
rhumerus 38.7274 18.4237 -41.6647
rradius 58.6072 0 0
rwrist -0.0101751 0 0
rhand -5.84824 -402.662 0
rfingers 7.12502 0 0
rthumb 19.9782 288.345 0
2352
root 2.39984 14.8469 -19.9837 984.35 -84.1744 106.689
lfemur -40.8442 -0.350377 3.66692
ltibia 53.9161 -0 0
lfoot 0.957247 15.9853 -0.0175158
ltoes -26.6174 0 0
rfemur -60.7388 -1.96392 9.03253
rtibia 76.4978 -0 0
rfoot -16.0536 -18.8883 0.182007
rtoes 1.61 -0 0
lowerback 21.5719 2.14054 -1.0433
upperback 0.190975 2.52372 0.342923
thorax -11.988 1.21006 0.194145
lowerneck -6.29186 1.62397 -1.8481
upperneck 4.06633 2.47321 -2.96545
head 2.3866 1.09995 -0.528982
lclavicle 2.38542e-15 -1.35174e-14 0
lhumerus -7.41969 -32.1711 77.2853
lradius 108.488 0 0
lwrist 57.0402 0 0
lhand -22.5263 397.8 0
lfingers 7.12502 0 0
lthumb 3.90054 -652.256 0
rclavicle 2.38542e-15 -1.35174e-14 0
rhumerus 36.8339 19.7962 -41.5503
rradius 60.4918 0 0
rwrist -1.05264 0 0
rhand -5.42283 -402.39 0
rfingers 7.12502 0 0
rthumb 20.3871 288.66 0
2353
root 2.4472 14.8745 -20.2084 1026.9 -83.9913 64.1156
lfemur -42.9191 -0.267901 4.01033
ltibia 55.2855 -0 0
lfoot 0.665786 16.0758 -0.0207431
ltoes -25.5084 0 0
rfemur -60.2393 -1.73448 9.45923
rtibia 76.4508 -0 0
rfoot -16.5178 -19.1803 0.177274
rtoes 1.2356 -0 0
lowerback 21.5176 1.83828 -0.613846
upperback 0.218146 2.26606 0.591154
thorax -11.9152 1.076 0.308761
lowerneck -6.2743 2.27523 -1.32168
upperneck 4.19158 3.33489 -3.53256
head 2.45413 1.51751 -0.765933
lclavicle -1.70955e-14 1.59028e-15 0
lhumerus -3.04923 -34.2002 76.2885
lradius 109.098 0 0
lwrist 55.4105 0 0
lhand -21.828 397.885 0
lfingers 7.12502 0 0
lthumb 4.57482 -652.185 0
rclavicle -1.70955e-14 1.59028e-15 0
rhumerus 34.95 21.2761 -41.6019
rradius 62.3443 0 0
rwrist -1.65416 0 0
rhand -4.93833 -402.345 0
rfingers 7.12502 0 0
rthumb 20.8527 288.756 0
2354
root 2.4807 14.895 -20.4273 1054.23 -81.4307 36.6554
lfemur -44.9934 -0.173047 4.35053
ltibia 56.655 -0 0
lfoot 0.37432 16.1665 -0.0235095
ltoes -24.3994 0 0
rfemur -59.7381 -1.50877 9.88787
rtibia 76.4037 -0 0
rfoot -16.982 -19.4723 0.170176
rtoes 0.86119 -0 0
lowerback 21.5745 1.66114 -0.0843369
upperback 0.162538 2.20189 0.857107
thorax -12.0004 1.02613 0.320582
lowerneck -6.12991 2.78829 -0.98942
upperneck 4.39906 4.01629 -3.84569
head 2.52223 1.85031 -0.896657
lclavicle 1.82882e-14 1.11319e-14 0
lhumerus 1.49224 -36.4009 75.0126
lradius 109.76 0 0
lwrist 53.83 0 0
lhand -20.5462 397.686 0
lfingers 7.12502 0 0
lthumb 5.8125 -652.413 0
rclavicle 1.82882e-14 1.11319e-14 0
rhumerus 32.6859 22.7093 -41.8652
rradius 64.0758 0 0
rwrist -1.98297 0 0
rhand -4.3937 -402.054 0
rfingers 7.12502 0 0
rthumb 21.3759 289.105 0
2355
root 2.49931 14.9112 -20.6495 1066.94 -77.8539 23.759
lfemur -45.2249 0.0697809 3.29991
ltibia 58.0244 -0 0
lfoot 0.0828499 16.2571 -0.0258149
ltoes -23.2904 0 0
rfemur -59.2352 -1.28682 10.3184
rtibia 76.3566 -0 0
rfoot -17.4461 -19.7643 0.160712
rtoes 0.486785 -0 0
lowerback 21.588 1.41345 0.489191
upperback 0.149899 2.03759 0.984766
thorax -12.0049 0.921759 0.186386
lowerneck -5.9852 3.37587 -0.325181
upperneck 4.48347 4.7829 -4.42744
head 2.57547 2.2253 -1.16839
lclavicle -4.37326e-15 -9.54166e-15 0
lhumerus 6.30848 -38.5772 73.2367
lradius 110.409 0 0
lwrist 52.4025 0 0
lhand -20.5615 397.908 0
lfingers 7.12502 0 0
lthumb 5.79772 -652.192 0
rclavicle -4.37326e-15 -9.54166e-15 0
rhumerus 30.5115 24.3088 -42.2852
rradius 65.9207 0 0
rwrist -2.25812 0 0
rhand -4.6749 -403.111 0
rfingers 7.12502 0 0
rthumb 21.1057 288.017 0
2356
root 2.50713 14.9211 -20.8648 1074.17 -73.9608 16.3572
lfemur -45.4609 0.308321 2.24831
ltibia 59.3938 -0 0
lfoot -0.208623 16.3477 -0.0276594
ltoes -22.1814 0 0
rfemur -58.7308 -1.06867 10.7509
rtibia 76.3095 -0 0
rfoot -17.9102 -20.0561 0.148883
rtoes 0.11238 -0 0
lowerback 21.6041 1.21613 1.20648
upperback 0.0865786 1.98542 1.17484
thorax -12.0688 0.862499 0.00407047
lowerneck -6.01333 3.85603 0.239787
upperneck 4.77706 5.4236 -4.92277
head 2.73322 2.53237 -1.39803
lclavicle 1.35174e-14 -4.77083e-15 0
lhumerus 11.2855 -40.7376 71.5536
lradius 110.936 0 0
lwrist 51.0301 0 0
lhand -22.1845 398.023 0
lfingers 7.12502 0 0
lthumb 4.23065 -652.039 0
rclavicle 1.35174e-14 -4.77083e-15 0
rhumerus 28.2559 25.6598 -43.2364
rradius 67.3116 0 0
rwrist -1.98054 0 0
rhand -3.05626 -401.763 0
rfingers 7.12502 0 0
rthumb 22.66 289.548 0
2357
root 2.5012 14.9369 -21.078 1077.91 -69.9762 12.3907
lfemur -45.7012 0.542488 1.1957
ltibia 60.7633 -0 0
lfoot -0.500099 16.4383 -0.0290428
ltoes -21.9081 0 0
rfemur -58.2248 -0.854331 11.1852
rtibia 76.2625 -0 0
rfoot -18.3742 -20.3478 0.134691
rtoes -0.262025 0 0
lowerback 21.6441 1.02005 1.64945
upperback -0.00546905 1.86766 1.35363
thorax -12.19 0.78815 -0.0137746
lowerneck -5.91174 4.46549 0.777042
upperneck 5.05522 6.24142 -5.43526
head 2.87699 2.92843 -1.62272
lclavicle -5.56597e-15 4.6118e-14 0
lhumerus 16.1854 -42.6321 69.7402
lradius 111.454 0 0
lwrist 49.752 0 0
lhand -22.3322 398.23 0
lfingers 7.12502 0 0
lthumb 4.08802 -651.829 0
rclavicle -5.56597e-15 4.6118e-14 0
rhumerus 26.0797 27.3845 -44.0852
rradius 68.8758 0 0
rwrist -1.97569 0 0
rhand -1.98106 -401.208 0
rfingers 7.12502 0 0
rthumb 23.6916 290.232 0
